Coordinates
version=1
nRows=11
nColumns=36
inDegrees=yes

Units are S.I. units (second, meters, Newtons, ...)
If the header above contains a line with 'inDegrees', this indicates whether rotational values are in degrees (yes) or radians (no).

endheader
time	pelvis_tilt	pelvis_list	pelvis_rotation	pelvis_tx	pelvis_ty	pelvis_tz	hip_flexion_r	hip_adduction_r	hip_rotation_r	knee_angle_r	knee_angle_r_beta	ankle_angle_r	subtalar_angle_r	mtp_angle_r	hip_flexion_l	hip_adduction_l	hip_rotation_l	knee_angle_l	knee_angle_l_beta	ankle_angle_l	subtalar_angle_l	mtp_angle_l	lumbar_extension	lumbar_bending	lumbar_rotation	arm_flex_r	arm_add_r	arm_rot_r	elbow_flex_r	pro_sup_r	arm_flex_l	arm_add_l	arm_rot_l	elbow_flex_l	pro_sup_l
      1.45000000	    -14.71657710	     -0.53279699	      4.50225223	     -0.37826108	      0.57852367	     -0.59407780	     88.70989223	     -7.81163600	      0.98322093	    103.83784067	      1.81231221	     30.87589372	     -3.67633826	     -7.47116870	     85.99759006	     -7.37226000	      1.86172547	    105.30981853	      1.83800307	     33.91227337	      4.52455233	     -7.47116870	    -43.69122676	      0.60758956	      0.77932849	     82.40579055	    -24.23035502	     28.45601458	     93.11904020	    103.95089274	     75.59143116	    -23.54248552	     31.07649347	    109.09721791	    105.69058302
      1.46000000	    -15.48629180	     -0.64914777	      4.64431080	     -0.37760648	      0.57222509	     -0.59312128	     90.21856396	     -7.65188365	      1.13077237	    104.83633406	      1.82973921	     30.99002900	     -3.88775517	     -7.47140323	     87.41707675	     -7.57833014	      1.99800977	    106.12036536	      1.85214978	     34.31470959	      4.87612731	     -7.47140323	    -44.48732606	      0.60537225	      0.64632747	     84.78182231	    -22.54271717	     28.05216020	     95.07219626	    103.99165498	     79.24784770	    -22.27702842	     31.30736428	    110.09157893	    105.83914588
      1.47000000	    -16.11665225	     -0.73489132	      4.79760549	     -0.37659441	      0.56670891	     -0.59240362	     91.46581932	     -7.54527268	      1.29830493	    105.75195101	      1.84571974	     31.04930910	     -4.27345539	     -7.47218331	     88.64296426	     -7.72010094	      2.17933629	    106.92468687	      1.86618784	     34.96241086	      5.93891431	     -7.47218331	    -45.40610361	      0.49019932	      0.67178874	     86.54522217	    -21.21410947	     27.16451131	     97.69809136	    103.92524755	     82.81636042	    -20.74717882	     31.96518185	    110.94817169	    106.10284297
      1.48000000	    -16.60102274	     -0.87454194	      5.06710875	     -0.37538029	      0.56198076	     -0.59233962	     92.40374755	     -7.61598095	      1.43579467	    106.55248443	      1.85969168	     31.28632135	     -4.42353051	     -7.47245776	     89.71365080	     -7.63593866	      2.39584194	    107.66506118	      1.87910981	     35.05823778	      6.16849928	     -7.47245776	    -46.38571619	      0.71405912	      0.48590570	     88.31458387	    -19.50247880	     26.61663696	     99.86934091	    103.99509299	     85.60569112	    -19.47306446	     31.66711894	    112.09523780	    106.26441758
      1.49000000	    -17.00390060	     -0.90357752	      5.26147893	     -0.37387989	      0.55801546	     -0.59189785	     93.16591921	     -7.54136762	      1.70931983	    107.26102515	      1.87205805	     31.58170294	     -4.59278158	     -7.47270774	     90.53748290	     -7.67872431	      2.47952960	    108.29300827	      1.89006955	     35.17077025	      6.45951683	     -7.47270774	    -47.35458305	      0.74390377	      0.31545281	     89.61820815	    -17.74888423	     25.80847688	    102.01959142	    104.06949861	     88.16369900	    -18.26394798	     31.48025954	    113.14187542	    106.44369915
      1.50000000	    -17.38547032	     -0.86604967	      5.34727647	     -0.37214842	      0.55466717	     -0.59071593	     93.84141957	     -7.23031587	      2.01316375	    107.91301461	      1.88343741	     31.90100312	     -4.81408234	     -7.47297699	     91.17240749	     -7.91529331	      2.46290338	    108.80498489	      1.89900523	     35.40430998	      6.84062323	     -7.47297699	    -48.22620667	      0.54727912	      0.17289562	     90.33259128	    -15.96244997	     24.76821097	    104.19723315	    104.14212665	     90.39156465	    -17.05355201	     31.40819904	    114.14719942	    106.64567799
      1.51000000	    -17.83292591	     -0.77102397	      5.43652863	     -0.37028984	      0.55163581	     -0.58936158	     94.55159999	     -6.94314460	      2.32852569	    108.54205077	      1.89441616	     32.20883553	     -5.06651783	     -7.47339086	     91.74005876	     -8.17830842	      2.40048525	    109.21264488	      1.90612024	     35.84858844	      7.45348330	     -7.47339086	    -48.89601935	      0.23146838	      0.04726511	     90.43827230	    -14.20065615	     23.35011333	    106.50203820	    104.19505951	     92.26211975	    -15.70084538	     31.39403833	    115.00557402	    106.85605867
      1.52000000	    -18.23183073	     -0.77901314	      5.61781231	     -0.36848012	      0.54934241	     -0.58850900	     95.07882328	     -6.82591332	      2.50441755	    109.03428676	      1.90300730	     32.45323803	     -5.22689482	     -7.47363010	     92.21683693	     -8.32440514	      2.36398175	    109.48949545	      1.91095219	     36.14044181	      7.81128457	     -7.47363010	    -49.56244467	      0.22455210	     -0.06501193	     90.48467832	    -12.36112150	     22.30318686	    108.70076921	    104.27292868	     93.70266801	    -14.46581515	     30.88372959	    115.98329422	    106.96965116
      1.53000000	    -18.63228294	     -0.75745285	      5.86209798	     -0.36651859	      0.54747303	     -0.58799461	     95.54539056	     -6.89667194	      2.66890528	    109.47259278	      1.91065718	     32.70935596	     -5.34225892	     -7.47389023	     92.62863048	     -8.38901609	      2.25343351	    109.72714639	      1.91509998	     36.45754946	      8.22749085	     -7.47389023	    -50.06070135	      0.22195141	     -0.26121617	     90.06902517	    -10.58740588	     21.13173158	    110.80287098	    104.34670366	     94.78437708	    -13.25258586	     30.34745047	    116.98499590	    107.08589406
      1.54000000	    -19.11416967	     -0.66583222	      6.07344312	     -0.36443068	      0.54584022	     -0.58737982	     96.06762544	     -7.03640116	      2.77463368	    109.85707620	      1.91736769	     33.02831378	     -5.41181982	     -7.47417547	     93.02838392	     -8.46504358	      2.07419136	    109.87394131	      1.91766204	     36.77403162	      8.66406403	     -7.47417547	    -50.29053894	      0.08579844	     -0.58804454	     89.35302238	     -9.06167007	     20.14405496	    112.94592187	    104.45339527	     95.52596549	    -12.22814661	     29.84715822	    118.05390602	    107.21769112
      1.55000000	    -19.66178836	     -0.50737241	      6.26557559	     -0.36221134	      0.54433364	     -0.58669540	     96.63001023	     -7.19309312	      2.90894904	    110.20422412	      1.92342656	     33.41002692	     -5.41915001	     -7.47452348	     93.43217435	     -8.58533407	      1.78294106	    109.99323122	      1.91974404	     37.08735335	      9.13741463	     -7.47452348	    -50.25451362	     -0.16196090	     -0.96836509	     88.41641226	     -7.95397690	     19.46337354	    115.01531018	    104.58625644	     95.98486299	    -11.32129681	     29.48335794	    119.06115513	    107.36160009
